<svg width="500" height="500" viewBox="0 0 500 500" fill="none" xmlns="http://www.w3.org/2000/svg">
<rect x="106" y="104" width="171" height="296" fill="white"/>
<rect x="265" y="156" width="176" height="119" fill="white"/>
<path d="M275 99C275 81.3269 289.327 67 307 67H399C416.673 67 431 81.3269 431 99V209.79C431 213.092 430.489 216.375 429.485 219.521L417.608 256.73C413.374 269.995 401.048 279 387.123 279H386H319C305.28 279 293.116 270.179 288.852 257.139L276.585 219.62C275.535 216.409 275 213.053 275 209.675V99Z" fill="black"/>
<rect x="315" y="107" width="75" height="75" rx="22" fill="white"/>
<rect x="113" y="123" width="156" height="156" fill="black"/>
<rect x="152" y="156" width="75" height="75" rx="22" fill="white"/>
<rect x="126" y="283" width="127" height="117" rx="4" fill="black"/>
<rect x="326.5" y="279.5" width="53" height="32" rx="4.5" fill="white" stroke="black" stroke-width="9"/>
<path d="M335 320C335 312.82 340.82 307 348 307H358C365.18 307 371 312.82 371 320V344H335V320Z" fill="black"/>
<rect x="339" y="307" width="28" height="105" rx="14" fill="black"/>
<rect x="100" y="271" width="180" height="42" rx="6" fill="black" stroke="white" stroke-width="4"/>
<rect x="102" y="381" width="176" height="19" rx="4" fill="black"/>
<path d="M98 107.803C98 104.106 100.534 100.89 104.128 100.025L189.597 79.4579C190.847 79.1571 192.151 79.162 193.399 79.4722L275.93 99.9909C279.496 100.878 282 104.08 282 107.755V121.5C282 125.918 278.418 129.5 274 129.5H106C101.582 129.5 98 125.918 98 121.5V107.803Z" fill="black"/>
<rect x="36" y="67" width="156" height="346" fill="white"/>
<path d="M101.754 46.6H106.14C109.132 46.6 111.546 47.28 113.382 48.64C115.286 49.932 117.122 52.278 118.89 55.678L133.986 84.544L149.082 55.678C150.85 52.278 152.652 49.932 154.488 48.64C156.392 47.28 158.84 46.6 161.832 46.6H166.218V118H159.282V53.944C158.33 54.08 157.48 54.454 156.732 55.066C156.052 55.61 155.338 56.596 154.59 58.024L133.986 96.784L113.382 58.024C112.566 56.528 111.818 55.508 111.138 54.964C110.458 54.352 109.642 54.012 108.69 53.944V118H101.754V46.6ZM130.331 167.516H107.177V161.6H160.829V167.516H137.675V233H130.331V167.516ZM134.016 349.122C124.972 349.122 118.036 346.912 113.208 342.492C108.38 338.004 105.966 331.544 105.966 323.112V301.488C105.966 293.056 108.38 286.63 113.208 282.21C118.036 277.722 124.972 275.478 134.016 275.478C143.06 275.478 149.996 277.722 154.824 282.21C159.652 286.63 162.066 293.056 162.066 301.488V323.112C162.066 331.544 159.652 338.004 154.824 342.492C149.996 346.912 143.06 349.122 134.016 349.122ZM134.016 343.206C140.68 343.206 145.78 341.472 149.316 338.004C152.92 334.536 154.722 329.572 154.722 323.112V301.488C154.722 295.028 152.92 290.064 149.316 286.596C145.78 283.128 140.68 281.394 134.016 281.394C127.352 281.394 122.218 283.128 118.614 286.596C115.078 290.064 113.31 295.028 113.31 301.488V323.112C113.31 329.572 115.078 334.536 118.614 338.004C122.218 341.472 127.352 343.206 134.016 343.206ZM111.715 391.6H142.009C148.809 391.6 153.977 393.368 157.513 396.904C161.117 400.44 162.919 405.574 162.919 412.306C162.919 419.106 161.117 424.274 157.513 427.81C153.977 431.346 148.809 433.114 142.009 433.114H119.059V463H111.715V391.6ZM141.397 427.198C145.885 427.198 149.353 425.906 151.801 423.322C154.317 420.67 155.575 416.998 155.575 412.306C155.575 407.682 154.317 404.078 151.801 401.494C149.353 398.842 145.885 397.516 141.397 397.516H119.059V427.198H141.397Z" fill="black"/>
<path d="M116.971 117.7H117.358C117.622 117.7 117.835 117.76 117.997 117.88C118.165 117.994 118.327 118.201 118.483 118.501L119.815 121.048L121.147 118.501C121.303 118.201 121.462 117.994 121.624 117.88C121.792 117.76 122.008 117.7 122.272 117.7H122.659V124H122.047V118.348C121.963 118.36 121.888 118.393 121.822 118.447C121.762 118.495 121.699 118.582 121.633 118.708L119.815 122.128L117.997 118.708C117.925 118.576 117.859 118.486 117.799 118.438C117.739 118.384 117.667 118.354 117.583 118.348V124H116.971V117.7ZM125.847 124.099C125.283 124.099 124.842 123.958 124.524 123.676C124.212 123.388 124.056 122.986 124.056 122.47V121.3C124.056 120.784 124.212 120.385 124.524 120.103C124.842 119.815 125.283 119.671 125.847 119.671C126.411 119.671 126.849 119.815 127.161 120.103C127.479 120.385 127.638 120.784 127.638 121.3V122.47C127.638 122.986 127.479 123.388 127.161 123.676C126.849 123.958 126.411 124.099 125.847 124.099ZM125.847 123.613C126.225 123.613 126.516 123.514 126.72 123.316C126.93 123.118 127.035 122.836 127.035 122.47V121.3C127.035 120.934 126.93 120.652 126.72 120.454C126.516 120.256 126.225 120.157 125.847 120.157C125.469 120.157 125.175 120.256 124.965 120.454C124.761 120.652 124.659 120.934 124.659 121.3V122.47C124.659 122.836 124.761 123.118 124.965 123.316C125.175 123.514 125.469 123.613 125.847 123.613ZM129.506 120.256V122.776C129.506 123.31 129.74 123.577 130.208 123.577H130.721V124.054H130.208C129.758 124.054 129.428 123.952 129.218 123.748C129.008 123.538 128.903 123.214 128.903 122.776V118.789C128.903 118.681 128.882 118.594 128.84 118.528C128.804 118.456 128.732 118.375 128.624 118.285L129.029 117.925C129.209 118.027 129.332 118.144 129.398 118.276C129.47 118.402 129.506 118.579 129.506 118.807V119.77H130.721V120.256H129.506ZM133.371 124.099C132.807 124.099 132.366 123.958 132.048 123.676C131.736 123.388 131.58 122.986 131.58 122.47V121.3C131.58 120.784 131.736 120.385 132.048 120.103C132.366 119.815 132.807 119.671 133.371 119.671C133.935 119.671 134.373 119.815 134.685 120.103C135.003 120.385 135.162 120.784 135.162 121.3V122.47C135.162 122.986 135.003 123.388 134.685 123.676C134.373 123.958 133.935 124.099 133.371 124.099ZM133.371 123.613C133.749 123.613 134.04 123.514 134.244 123.316C134.454 123.118 134.559 122.836 134.559 122.47V121.3C134.559 120.934 134.454 120.652 134.244 120.454C134.04 120.256 133.749 120.157 133.371 120.157C132.993 120.157 132.699 120.256 132.489 120.454C132.285 120.652 132.183 120.934 132.183 121.3V122.47C132.183 122.836 132.285 123.118 132.489 123.316C132.699 123.514 132.993 123.613 133.371 123.613ZM138.435 119.671C138.657 119.671 138.852 119.725 139.02 119.833L138.858 120.382C138.684 120.28 138.492 120.229 138.282 120.229C137.988 120.229 137.73 120.367 137.508 120.643C137.286 120.919 137.127 121.3 137.031 121.786V124H136.428V120.535C136.428 120.427 136.407 120.34 136.365 120.274C136.329 120.202 136.257 120.121 136.149 120.031L136.554 119.671C136.734 119.773 136.857 119.89 136.923 120.022C136.995 120.148 137.031 120.325 137.031 120.553V120.787C137.169 120.433 137.358 120.16 137.598 119.968C137.844 119.77 138.123 119.671 138.435 119.671ZM140.268 118.816C140.154 118.816 140.055 118.774 139.971 118.69C139.887 118.606 139.845 118.507 139.845 118.393C139.845 118.279 139.887 118.183 139.971 118.105C140.055 118.021 140.154 117.979 140.268 117.979C140.382 117.979 140.478 118.021 140.556 118.105C140.64 118.183 140.682 118.279 140.682 118.393C140.682 118.507 140.64 118.606 140.556 118.69C140.478 118.774 140.382 118.816 140.268 118.816ZM140.448 124.099C140.262 123.997 140.133 123.883 140.061 123.757C139.995 123.625 139.962 123.445 139.962 123.217V119.77H140.565V123.235C140.565 123.343 140.583 123.433 140.619 123.505C140.661 123.571 140.736 123.649 140.844 123.739L140.448 124.099ZM145.191 123.523V124H142.5C141.996 124 141.744 123.808 141.744 123.424V123.163L144.399 120.247H141.834V119.77H145.11V120.229L142.293 123.307C142.311 123.451 142.416 123.523 142.608 123.523H145.191ZM147.681 123.613C147.939 123.613 148.167 123.574 148.365 123.496C148.563 123.418 148.746 123.292 148.914 123.118L149.292 123.469C149.1 123.685 148.872 123.844 148.608 123.946C148.344 124.048 148.023 124.099 147.645 124.099C147.069 124.099 146.619 123.964 146.295 123.694C145.977 123.418 145.818 123.034 145.818 122.542V121.174C145.818 120.712 145.974 120.349 146.286 120.085C146.604 119.815 147.039 119.68 147.591 119.68C148.155 119.68 148.587 119.821 148.887 120.103C149.193 120.385 149.346 120.784 149.346 121.3C149.346 121.63 149.283 121.858 149.157 121.984C149.037 122.104 148.809 122.164 148.473 122.164H146.421V122.542C146.421 122.902 146.523 123.172 146.727 123.352C146.937 123.526 147.255 123.613 147.681 123.613ZM147.582 120.157C147.222 120.157 146.937 120.253 146.727 120.445C146.523 120.631 146.421 120.886 146.421 121.21V121.723H148.221C148.425 121.723 148.563 121.69 148.635 121.624C148.707 121.552 148.743 121.42 148.743 121.228C148.743 120.892 148.641 120.631 148.437 120.445C148.233 120.253 147.948 120.157 147.582 120.157ZM154.107 123.235C154.107 123.343 154.125 123.433 154.161 123.505C154.203 123.571 154.278 123.649 154.386 123.739L153.99 124.099C153.84 124.015 153.729 123.907 153.657 123.775C153.585 123.637 153.543 123.496 153.531 123.352C153.219 123.85 152.742 124.099 152.1 124.099C151.728 124.099 151.401 124.015 151.119 123.847C150.843 123.673 150.627 123.43 150.471 123.118C150.321 122.806 150.246 122.443 150.246 122.029V121.741C150.246 121.327 150.321 120.964 150.471 120.652C150.627 120.34 150.843 120.1 151.119 119.932C151.401 119.758 151.728 119.671 152.1 119.671C152.406 119.671 152.679 119.731 152.919 119.851C153.165 119.971 153.36 120.142 153.504 120.364V118.348C153.504 118.24 153.486 118.153 153.45 118.087C153.414 118.021 153.339 117.937 153.225 117.835L153.639 117.484C153.813 117.58 153.933 117.694 153.999 117.826C154.071 117.958 154.107 118.138 154.107 118.366V123.235ZM153.504 121.129C153.402 120.805 153.246 120.562 153.036 120.4C152.826 120.238 152.547 120.157 152.199 120.157C151.791 120.157 151.464 120.301 151.218 120.589C150.972 120.877 150.849 121.261 150.849 121.741V122.029C150.849 122.509 150.972 122.893 151.218 123.181C151.464 123.469 151.791 123.613 152.199 123.613C152.547 123.613 152.826 123.532 153.036 123.37C153.246 123.208 153.402 122.965 153.504 122.641V121.129Z" fill="black"/>
<path d="M121.542 235.222H119.499V234.7H124.233V235.222H122.19V241H121.542V235.222ZM126.923 236.671C127.145 236.671 127.34 236.725 127.508 236.833L127.346 237.382C127.172 237.28 126.98 237.229 126.77 237.229C126.476 237.229 126.218 237.367 125.996 237.643C125.774 237.919 125.615 238.3 125.519 238.786V241H124.916V237.535C124.916 237.427 124.895 237.34 124.853 237.274C124.817 237.202 124.745 237.121 124.637 237.031L125.042 236.671C125.222 236.773 125.345 236.89 125.411 237.022C125.483 237.148 125.519 237.325 125.519 237.553V237.787C125.657 237.433 125.846 237.16 126.086 236.968C126.332 236.77 126.611 236.671 126.923 236.671ZM128.756 235.816C128.642 235.816 128.543 235.774 128.459 235.69C128.375 235.606 128.333 235.507 128.333 235.393C128.333 235.279 128.375 235.183 128.459 235.105C128.543 235.021 128.642 234.979 128.756 234.979C128.87 234.979 128.966 235.021 129.044 235.105C129.128 235.183 129.17 235.279 129.17 235.393C129.17 235.507 129.128 235.606 129.044 235.69C128.966 235.774 128.87 235.816 128.756 235.816ZM128.936 241.099C128.75 240.997 128.621 240.883 128.549 240.757C128.483 240.625 128.45 240.445 128.45 240.217V236.77H129.053V240.235C129.053 240.343 129.071 240.433 129.107 240.505C129.149 240.571 129.224 240.649 129.332 240.739L128.936 241.099ZM132.249 241.099C131.661 241.099 131.208 240.964 130.89 240.694C130.572 240.424 130.413 240.034 130.413 239.524V238.246C130.413 237.748 130.575 237.361 130.899 237.085C131.223 236.809 131.676 236.671 132.258 236.671C132.612 236.671 132.918 236.728 133.176 236.842C133.434 236.956 133.656 237.13 133.842 237.364L133.428 237.715C133.26 237.511 133.086 237.367 132.906 237.283C132.726 237.199 132.51 237.157 132.258 237.157C131.868 237.157 131.562 237.253 131.34 237.445C131.124 237.637 131.016 237.904 131.016 238.246V239.524C131.016 239.872 131.121 240.142 131.331 240.334C131.547 240.52 131.853 240.613 132.249 240.613C132.519 240.613 132.753 240.568 132.951 240.478C133.149 240.388 133.317 240.25 133.455 240.064L133.869 240.415C133.695 240.649 133.476 240.823 133.212 240.937C132.948 241.045 132.627 241.099 132.249 241.099ZM138.409 236.77V241.558C138.409 242.056 138.277 242.425 138.013 242.665C137.749 242.911 137.35 243.034 136.816 243.034H135.727V242.557H136.816C137.476 242.557 137.806 242.221 137.806 241.549V240.28C137.512 240.826 137.026 241.099 136.348 241.099C135.898 241.099 135.544 240.967 135.286 240.703C135.034 240.433 134.908 240.067 134.908 239.605V237.544C134.908 237.436 134.887 237.349 134.845 237.283C134.809 237.211 134.737 237.13 134.629 237.04L135.034 236.68C135.214 236.782 135.337 236.899 135.403 237.031C135.475 237.157 135.511 237.334 135.511 237.562V239.56C135.511 239.896 135.595 240.157 135.763 240.343C135.937 240.523 136.18 240.613 136.492 240.613C136.846 240.613 137.146 240.493 137.392 240.253C137.638 240.007 137.776 239.698 137.806 239.326V236.77H138.409ZM141.213 241.099C140.625 241.099 140.172 240.964 139.854 240.694C139.536 240.424 139.377 240.034 139.377 239.524V238.246C139.377 237.748 139.539 237.361 139.863 237.085C140.187 236.809 140.64 236.671 141.222 236.671C141.576 236.671 141.882 236.728 142.14 236.842C142.398 236.956 142.62 237.13 142.806 237.364L142.392 237.715C142.224 237.511 142.05 237.367 141.87 237.283C141.69 237.199 141.474 237.157 141.222 237.157C140.832 237.157 140.526 237.253 140.304 237.445C140.088 237.637 139.98 237.904 139.98 238.246V239.524C139.98 239.872 140.085 240.142 140.295 240.334C140.511 240.52 140.817 240.613 141.213 240.613C141.483 240.613 141.717 240.568 141.915 240.478C142.113 240.388 142.281 240.25 142.419 240.064L142.833 240.415C142.659 240.649 142.44 240.823 142.176 240.937C141.912 241.045 141.591 241.099 141.213 241.099ZM144.404 241.099C144.218 240.997 144.089 240.883 144.017 240.757C143.951 240.625 143.918 240.445 143.918 240.217V235.339C143.918 235.225 143.897 235.135 143.855 235.069C143.819 234.997 143.747 234.919 143.639 234.835L144.035 234.475C144.221 234.577 144.347 234.694 144.413 234.826C144.485 234.952 144.521 235.129 144.521 235.357V240.235C144.521 240.343 144.539 240.433 144.575 240.505C144.617 240.571 144.692 240.649 144.8 240.739L144.404 241.099ZM147.7 240.613C147.958 240.613 148.186 240.574 148.384 240.496C148.582 240.418 148.765 240.292 148.933 240.118L149.311 240.469C149.119 240.685 148.891 240.844 148.627 240.946C148.363 241.048 148.042 241.099 147.664 241.099C147.088 241.099 146.638 240.964 146.314 240.694C145.996 240.418 145.837 240.034 145.837 239.542V238.174C145.837 237.712 145.993 237.349 146.305 237.085C146.623 236.815 147.058 236.68 147.61 236.68C148.174 236.68 148.606 236.821 148.906 237.103C149.212 237.385 149.365 237.784 149.365 238.3C149.365 238.63 149.302 238.858 149.176 238.984C149.056 239.104 148.828 239.164 148.492 239.164H146.44V239.542C146.44 239.902 146.542 240.172 146.746 240.352C146.956 240.526 147.274 240.613 147.7 240.613ZM147.601 237.157C147.241 237.157 146.956 237.253 146.746 237.445C146.542 237.631 146.44 237.886 146.44 238.21V238.723H148.24C148.444 238.723 148.582 238.69 148.654 238.624C148.726 238.552 148.762 238.42 148.762 238.228C148.762 237.892 148.66 237.631 148.456 237.445C148.252 237.253 147.967 237.157 147.601 237.157Z" fill="black"/>
<path d="M118.262 355.099C117.464 355.099 116.852 354.904 116.426 354.514C116 354.118 115.787 353.548 115.787 352.804V350.896C115.787 350.152 116 349.585 116.426 349.195C116.852 348.799 117.464 348.601 118.262 348.601C119.06 348.601 119.672 348.799 120.098 349.195C120.524 349.585 120.737 350.152 120.737 350.896V352.804C120.737 353.548 120.524 354.118 120.098 354.514C119.672 354.904 119.06 355.099 118.262 355.099ZM118.262 354.577C118.85 354.577 119.3 354.424 119.612 354.118C119.93 353.812 120.089 353.374 120.089 352.804V350.896C120.089 350.326 119.93 349.888 119.612 349.582C119.3 349.276 118.85 349.123 118.262 349.123C117.674 349.123 117.221 349.276 116.903 349.582C116.591 349.888 116.435 350.326 116.435 350.896V352.804C116.435 353.374 116.591 353.812 116.903 354.118C117.221 354.424 117.674 354.577 118.262 354.577ZM124.03 350.671C124.426 350.671 124.762 350.767 125.038 350.959C125.314 351.145 125.521 351.394 125.659 351.706C125.797 352.018 125.866 352.363 125.866 352.741V353.029C125.866 353.407 125.797 353.752 125.659 354.064C125.521 354.376 125.314 354.628 125.038 354.82C124.762 355.006 124.426 355.099 124.03 355.099C123.376 355.099 122.902 354.865 122.608 354.397V356.971H122.005V351.535C122.005 351.427 121.984 351.34 121.942 351.274C121.906 351.202 121.834 351.121 121.726 351.031L122.122 350.671C122.278 350.761 122.392 350.86 122.464 350.968C122.542 351.076 122.584 351.211 122.59 351.373C122.908 350.905 123.388 350.671 124.03 350.671ZM125.263 352.741C125.263 352.261 125.14 351.877 124.894 351.589C124.648 351.301 124.321 351.157 123.913 351.157C123.565 351.157 123.286 351.238 123.076 351.4C122.866 351.562 122.71 351.805 122.608 352.129V353.641C122.71 353.965 122.866 354.208 123.076 354.37C123.286 354.532 123.565 354.613 123.913 354.613C124.321 354.613 124.648 354.469 124.894 354.181C125.14 353.893 125.263 353.509 125.263 353.029V352.741ZM128.767 354.613C129.025 354.613 129.253 354.574 129.451 354.496C129.649 354.418 129.832 354.292 130 354.118L130.378 354.469C130.186 354.685 129.958 354.844 129.694 354.946C129.43 355.048 129.109 355.099 128.731 355.099C128.155 355.099 127.705 354.964 127.381 354.694C127.063 354.418 126.904 354.034 126.904 353.542V352.174C126.904 351.712 127.06 351.349 127.372 351.085C127.69 350.815 128.125 350.68 128.677 350.68C129.241 350.68 129.673 350.821 129.973 351.103C130.279 351.385 130.432 351.784 130.432 352.3C130.432 352.63 130.369 352.858 130.243 352.984C130.123 353.104 129.895 353.164 129.559 353.164H127.507V353.542C127.507 353.902 127.609 354.172 127.813 354.352C128.023 354.526 128.341 354.613 128.767 354.613ZM128.668 351.157C128.308 351.157 128.023 351.253 127.813 351.445C127.609 351.631 127.507 351.886 127.507 352.21V352.723H129.307C129.511 352.723 129.649 352.69 129.721 352.624C129.793 352.552 129.829 352.42 129.829 352.228C129.829 351.892 129.727 351.631 129.523 351.445C129.319 351.253 129.034 351.157 128.668 351.157ZM133.574 350.671C133.796 350.671 133.991 350.725 134.159 350.833L133.997 351.382C133.823 351.28 133.631 351.229 133.421 351.229C133.127 351.229 132.869 351.367 132.647 351.643C132.425 351.919 132.266 352.3 132.17 352.786V355H131.567V351.535C131.567 351.427 131.546 351.34 131.504 351.274C131.468 351.202 131.396 351.121 131.288 351.031L131.693 350.671C131.873 350.773 131.996 350.89 132.062 351.022C132.134 351.148 132.17 351.325 132.17 351.553V351.787C132.308 351.433 132.497 351.16 132.737 350.968C132.983 350.77 133.262 350.671 133.574 350.671ZM138.069 354.235C138.069 354.343 138.087 354.433 138.123 354.505C138.165 354.571 138.24 354.649 138.348 354.739L137.943 355.099C137.793 355.015 137.682 354.919 137.61 354.811C137.538 354.703 137.496 354.562 137.484 354.388C137.328 354.616 137.115 354.793 136.845 354.919C136.575 355.039 136.272 355.099 135.936 355.099C135.48 355.099 135.129 354.994 134.883 354.784C134.637 354.568 134.514 354.259 134.514 353.857C134.514 353.485 134.643 353.194 134.901 352.984C135.159 352.774 135.549 352.639 136.071 352.579L136.773 352.498C136.971 352.474 137.118 352.444 137.214 352.408C137.316 352.372 137.385 352.321 137.421 352.255C137.457 352.183 137.472 352.084 137.466 351.958C137.412 351.4 137.022 351.121 136.296 351.121C136.026 351.121 135.795 351.166 135.603 351.256C135.411 351.34 135.246 351.475 135.108 351.661L134.694 351.355C134.976 350.899 135.51 350.671 136.296 350.671C136.872 350.671 137.31 350.794 137.61 351.04C137.916 351.286 138.069 351.64 138.069 352.102V354.235ZM136.071 354.631C136.491 354.631 136.83 354.523 137.088 354.307C137.346 354.091 137.475 353.806 137.475 353.452V352.723C137.403 352.777 137.316 352.819 137.214 352.849C137.112 352.873 136.971 352.894 136.791 352.912L136.125 352.984C135.783 353.026 135.522 353.122 135.342 353.272C135.168 353.416 135.081 353.608 135.081 353.848C135.081 354.37 135.411 354.631 136.071 354.631ZM139.974 351.256V353.776C139.974 354.31 140.208 354.577 140.676 354.577H141.189V355.054H140.676C140.226 355.054 139.896 354.952 139.686 354.748C139.476 354.538 139.371 354.214 139.371 353.776V349.789C139.371 349.681 139.35 349.594 139.308 349.528C139.272 349.456 139.2 349.375 139.092 349.285L139.497 348.925C139.677 349.027 139.8 349.144 139.866 349.276C139.938 349.402 139.974 349.579 139.974 349.807V350.77H141.189V351.256H139.974ZM143.838 355.099C143.274 355.099 142.833 354.958 142.515 354.676C142.203 354.388 142.047 353.986 142.047 353.47V352.3C142.047 351.784 142.203 351.385 142.515 351.103C142.833 350.815 143.274 350.671 143.838 350.671C144.402 350.671 144.84 350.815 145.152 351.103C145.47 351.385 145.629 351.784 145.629 352.3V353.47C145.629 353.986 145.47 354.388 145.152 354.676C144.84 354.958 144.402 355.099 143.838 355.099ZM143.838 354.613C144.216 354.613 144.507 354.514 144.711 354.316C144.921 354.118 145.026 353.836 145.026 353.47V352.3C145.026 351.934 144.921 351.652 144.711 351.454C144.507 351.256 144.216 351.157 143.838 351.157C143.46 351.157 143.166 351.256 142.956 351.454C142.752 351.652 142.65 351.934 142.65 352.3V353.47C142.65 353.836 142.752 354.118 142.956 354.316C143.166 354.514 143.46 354.613 143.838 354.613ZM148.903 350.671C149.125 350.671 149.32 350.725 149.488 350.833L149.326 351.382C149.152 351.28 148.96 351.229 148.75 351.229C148.456 351.229 148.198 351.367 147.976 351.643C147.754 351.919 147.595 352.3 147.499 352.786V355H146.896V351.535C146.896 351.427 146.875 351.34 146.833 351.274C146.797 351.202 146.725 351.121 146.617 351.031L147.022 350.671C147.202 350.773 147.325 350.89 147.391 351.022C147.463 351.148 147.499 351.325 147.499 351.553V351.787C147.637 351.433 147.826 351.16 148.066 350.968C148.312 350.77 148.591 350.671 148.903 350.671ZM150.819 348.331C150.963 348.331 151.074 348.379 151.152 348.475C151.236 348.571 151.278 348.709 151.278 348.889C151.278 349.165 151.224 349.411 151.116 349.627C151.008 349.837 150.843 350.038 150.621 350.23L150.423 350.032C150.573 349.894 150.684 349.756 150.756 349.618C150.834 349.48 150.876 349.333 150.882 349.177C150.834 349.213 150.765 349.231 150.675 349.231C150.573 349.231 150.492 349.198 150.432 349.132C150.372 349.06 150.342 348.964 150.342 348.844C150.342 348.718 150.387 348.601 150.477 348.493C150.573 348.385 150.687 348.331 150.819 348.331ZM153.7 355.099C153.346 355.099 153.043 355.042 152.791 354.928C152.545 354.814 152.32 354.628 152.116 354.37L152.503 354.037C152.689 354.247 152.872 354.397 153.052 354.487C153.232 354.571 153.448 354.613 153.7 354.613C154.06 354.613 154.333 354.55 154.519 354.424C154.705 354.298 154.798 354.115 154.798 353.875C154.798 353.725 154.762 353.605 154.69 353.515C154.618 353.425 154.492 353.347 154.312 353.281C154.132 353.215 153.859 353.149 153.493 353.083C152.653 352.933 152.233 352.531 152.233 351.877C152.233 351.499 152.368 351.205 152.638 350.995C152.914 350.779 153.292 350.671 153.772 350.671C154.114 350.671 154.411 350.731 154.663 350.851C154.921 350.965 155.116 351.133 155.248 351.355L154.861 351.679C154.723 351.499 154.564 351.367 154.384 351.283C154.21 351.199 154.006 351.157 153.772 351.157C153.472 351.157 153.235 351.22 153.061 351.346C152.893 351.472 152.809 351.646 152.809 351.868C152.809 352.066 152.878 352.219 153.016 352.327C153.16 352.435 153.409 352.525 153.763 352.597C154.177 352.687 154.498 352.786 154.726 352.894C154.96 352.996 155.125 353.125 155.221 353.281C155.323 353.437 155.374 353.635 155.374 353.875C155.374 354.277 155.23 354.583 154.942 354.793C154.66 354.997 154.246 355.099 153.7 355.099Z" fill="black"/>
<path d="M122.931 467.7H125.604C126.204 467.7 126.66 467.856 126.972 468.168C127.29 468.48 127.449 468.933 127.449 469.527C127.449 470.127 127.29 470.583 126.972 470.895C126.66 471.207 126.204 471.363 125.604 471.363H123.579V474H122.931V467.7ZM125.55 470.841C125.946 470.841 126.252 470.727 126.468 470.499C126.69 470.265 126.801 469.941 126.801 469.527C126.801 469.119 126.69 468.801 126.468 468.573C126.252 468.339 125.946 468.222 125.55 468.222H123.579V470.841H125.55ZM129.945 473.613C130.203 473.613 130.431 473.574 130.629 473.496C130.827 473.418 131.01 473.292 131.178 473.118L131.556 473.469C131.364 473.685 131.136 473.844 130.872 473.946C130.608 474.048 130.287 474.099 129.909 474.099C129.333 474.099 128.883 473.964 128.559 473.694C128.241 473.418 128.082 473.034 128.082 472.542V471.174C128.082 470.712 128.238 470.349 128.55 470.085C128.868 469.815 129.303 469.68 129.855 469.68C130.419 469.68 130.851 469.821 131.151 470.103C131.457 470.385 131.61 470.784 131.61 471.3C131.61 471.63 131.547 471.858 131.421 471.984C131.301 472.104 131.073 472.164 130.737 472.164H128.685V472.542C128.685 472.902 128.787 473.172 128.991 473.352C129.201 473.526 129.519 473.613 129.945 473.613ZM129.846 470.157C129.486 470.157 129.201 470.253 128.991 470.445C128.787 470.631 128.685 470.886 128.685 471.21V471.723H130.485C130.689 471.723 130.827 471.69 130.899 471.624C130.971 471.552 131.007 471.42 131.007 471.228C131.007 470.892 130.905 470.631 130.701 470.445C130.497 470.253 130.212 470.157 129.846 470.157ZM134.753 469.671C134.975 469.671 135.17 469.725 135.338 469.833L135.176 470.382C135.002 470.28 134.81 470.229 134.6 470.229C134.306 470.229 134.048 470.367 133.826 470.643C133.604 470.919 133.445 471.3 133.349 471.786V474H132.746V470.535C132.746 470.427 132.725 470.34 132.683 470.274C132.647 470.202 132.575 470.121 132.467 470.031L132.872 469.671C133.052 469.773 133.175 469.89 133.241 470.022C133.313 470.148 133.349 470.325 133.349 470.553V470.787C133.487 470.433 133.676 470.16 133.916 469.968C134.162 469.77 134.441 469.671 134.753 469.671ZM140.969 469.671C141.371 469.671 141.683 469.797 141.905 470.049C142.127 470.301 142.238 470.655 142.238 471.111V474H141.635V471.201C141.635 470.865 141.563 470.607 141.419 470.427C141.275 470.247 141.071 470.157 140.807 470.157C140.507 470.157 140.24 470.283 140.006 470.535C139.778 470.781 139.622 471.114 139.538 471.534V474H138.935V471.201C138.935 470.865 138.863 470.607 138.719 470.427C138.581 470.247 138.38 470.157 138.116 470.157C137.816 470.157 137.549 470.286 137.315 470.544C137.081 470.796 136.925 471.126 136.847 471.534V474H136.244V470.535C136.244 470.427 136.223 470.34 136.181 470.274C136.145 470.202 136.073 470.121 135.965 470.031L136.361 469.671C136.529 469.761 136.649 469.872 136.721 470.004C136.799 470.136 136.838 470.301 136.838 470.499V470.643C136.982 470.331 137.177 470.091 137.423 469.923C137.675 469.755 137.96 469.671 138.278 469.671C138.614 469.671 138.887 469.764 139.097 469.95C139.307 470.136 139.439 470.406 139.493 470.76C139.595 470.424 139.781 470.16 140.051 469.968C140.321 469.77 140.627 469.671 140.969 469.671ZM143.987 468.816C143.873 468.816 143.774 468.774 143.69 468.69C143.606 468.606 143.564 468.507 143.564 468.393C143.564 468.279 143.606 468.183 143.69 468.105C143.774 468.021 143.873 467.979 143.987 467.979C144.101 467.979 144.197 468.021 144.275 468.105C144.359 468.183 144.401 468.279 144.401 468.393C144.401 468.507 144.359 468.606 144.275 468.69C144.197 468.774 144.101 468.816 143.987 468.816ZM144.167 474.099C143.981 473.997 143.852 473.883 143.78 473.757C143.714 473.625 143.681 473.445 143.681 473.217V469.77H144.284V473.235C144.284 473.343 144.302 473.433 144.338 473.505C144.38 473.571 144.455 473.649 144.563 473.739L144.167 474.099ZM146.347 470.256V472.776C146.347 473.31 146.581 473.577 147.049 473.577H147.562V474.054H147.049C146.599 474.054 146.269 473.952 146.059 473.748C145.849 473.538 145.744 473.214 145.744 472.776V468.789C145.744 468.681 145.723 468.594 145.681 468.528C145.645 468.456 145.573 468.375 145.465 468.285L145.87 467.925C146.05 468.027 146.173 468.144 146.239 468.276C146.311 468.402 146.347 468.579 146.347 468.807V469.77H147.562V470.256H146.347Z" fill="black"/>
<path d="M349.963 230.463C351.882 229.538 354.118 229.538 356.037 230.463L382.018 242.974C383.937 243.899 385.331 245.647 385.805 247.723L392.222 275.837C392.696 277.914 392.198 280.093 390.87 281.759L372.891 304.304C371.563 305.97 369.548 306.94 367.418 306.94H338.582C336.452 306.94 334.437 305.97 333.109 304.304L315.13 281.759C313.802 280.093 313.304 277.914 313.778 275.837L320.195 247.723C320.669 245.647 322.063 243.899 323.982 242.974L349.963 230.463Z" fill="white"/>
<circle cx="352.5" cy="270.5" r="30.5" fill="black"/>
<rect x="267" y="62" width="171" height="34" rx="17" fill="black"/>
<path d="M412 201C412 200.448 412.448 200 413 200H435C436.657 200 438 201.343 438 203V205C438 206.657 436.657 208 435 208H412V201Z" fill="black"/>
<path d="M295 201C295 200.448 294.552 200 294 200H272C270.343 200 269 201.343 269 203V205C269 206.657 270.343 208 272 208H295V201Z" fill="black"/>
<circle cx="427.5" cy="173.5" r="8.5" fill="black"/>
</svg>
